<?xml version="1.0" standalone="no"?>
<!DOCTYPE svg PUBLIC "-//W3C//DTD SVG 20010904//EN"
 "http://www.w3.org/TR/2001/REC-SVG-20010904/DTD/svg10.dtd">
<svg version="1.0" xmlns="http://www.w3.org/2000/svg"
 width="120.000000pt" height="120.000000pt" viewBox="0 0 120.000000 120.000000"
 preserveAspectRatio="xMidYMid meet">
<metadata>
Created by potrace 1.11, written by Peter Selinger 2001-2013
</metadata>
<g transform="translate(0.000000,120.000000) scale(0.100000,-0.100000)"
fill="#000000" stroke="none">
<path d="M0 600 l0 -600 600 0 600 0 0 600 0 600 -600 0 -600 0 0 -600z m708
325 c123 -37 176 -142 141 -281 -15 -57 -71 -116 -135 -139 -28 -10 -93 -19
-151 -22 l-103 -6 0 -153 0 -154 -40 0 -40 0 0 385 0 385 138 0 c95 0 155 -5
190 -15z"/>
<path d="M468 874 c-5 -4 -8 -79 -8 -167 l0 -159 103 4 c112 4 152 19 191 71
16 22 21 43 21 90 0 75 -25 117 -83 140 -42 17 -213 33 -224 21z"/>
</g>
</svg>
